<mxfile host="65bd71144e">
    <diagram id="nApY0GXeao1E4CzejnQw" name="Page-1">
        <mxGraphModel dx="495" dy="441" grid="1" gridSize="10" guides="1" tooltips="1" connect="1" arrows="1" fold="1" page="1" pageScale="1" pageWidth="850" pageHeight="1100" math="0" shadow="0">
            <root>
                <mxCell id="0"/>
                <mxCell id="1" parent="0"/>
                <mxCell id="27" value="" style="shape=cube;whiteSpace=wrap;html=1;boundedLbl=1;backgroundOutline=1;darkOpacity=0.05;darkOpacity2=0.1;fillColor=none;" parent="1" vertex="1">
                    <mxGeometry x="425" y="100" width="140" height="140" as="geometry"/>
                </mxCell>
                <mxCell id="29" value="STATE A" style="ellipse;whiteSpace=wrap;html=1;aspect=fixed;fillColor=none;" parent="1" vertex="1">
                    <mxGeometry x="465" y="140" width="80" height="80" as="geometry"/>
                </mxCell>
                <mxCell id="36" value="&lt;font style=&quot;font-size: 31px;&quot;&gt;0&lt;br&gt;&lt;/font&gt;" style="ellipse;whiteSpace=wrap;html=1;aspect=fixed;fillColor=none;" parent="1" vertex="1">
                    <mxGeometry x="320" y="30" width="60" height="60" as="geometry"/>
                </mxCell>
                <mxCell id="37" value="STATE A" style="text;html=1;align=center;verticalAlign=middle;resizable=0;points=[];autosize=1;strokeColor=none;fillColor=none;fontSize=31;" parent="1" vertex="1">
                    <mxGeometry x="395" y="35" width="150" height="50" as="geometry"/>
                </mxCell>
            </root>
        </mxGraphModel>
    </diagram>
</mxfile>